<svg width="630" height="280" viewBox="0 0 630 280" fill="none" xmlns="http://www.w3.org/2000/svg">
<path d="M12.5489 155.159L1.02539 193.077L120.22 229.3L131.743 191.382L12.5489 155.159Z" fill="#877CF3"/>
<path d="M448.452 163.2L441.87 202.28L564.717 222.969L571.299 183.889L448.452 163.2Z" fill="#877CF3"/>
<path d="M178.093 135.263L138.586 138.389L149.497 276.298L189.004 273.172L178.093 135.263Z" fill="#877CF3"/>
<path d="M612.869 137.404L573.508 142.019L589.614 279.417L628.975 274.803L612.869 137.404Z" fill="#877CF3"/>
<path d="M163.794 24.3888L132.112 0.581207L36.8047 127.411L68.4867 151.219L163.794 24.3888Z" fill="#877CF3"/>
<path d="M599.003 38.0302L570.565 10.4295L460.074 124.275L488.512 151.876L599.003 38.0302Z" fill="#877CF3"/>
<path d="M309.923 60.3646L278.656 36.016L217.925 114.005L249.193 138.353L309.923 60.3646Z" fill="#877CF3"/>
<path d="M424.503 166.669L396.739 138.389L326.205 207.637L353.968 235.917L424.503 166.669Z" fill="#877CF3"/>
<path d="M375.233 128.399L408.178 106.373L353.242 24.2007L320.296 46.2267L375.233 128.399Z" fill="#877CF3"/>
<path d="M290.318 258.831L320.342 232.965L255.825 158.078L225.801 183.945L290.318 258.831Z" fill="#877CF3"/>
</svg>
