<svg width="80" height="80" viewBox="0 0 80 80" fill="none" xmlns="http://www.w3.org/2000/svg">
<path d="M44.1664 71.8316C41.8664 73.7983 38.0998 73.7983 35.7664 71.8316L30.4997 67.2984C29.4997 66.4317 27.6331 65.7316 26.2998 65.7316H20.6331C17.0998 65.7316 14.1998 62.8316 14.1998 59.2983V53.6318C14.1998 52.3318 13.4998 50.4317 12.6331 49.4317L8.09972 44.165C6.13306 41.865 6.13306 38.0983 8.09972 35.7649L12.6331 30.4984C13.4998 29.4984 14.1998 27.6317 14.1998 26.2984V20.6317C14.1998 17.0984 17.0998 14.1984 20.6331 14.1984H26.2998C27.5998 14.1984 29.4997 13.4983 30.4997 12.6316L35.7664 8.09832C38.0664 6.13165 41.8331 6.13165 44.1664 8.09832L49.433 12.6316C50.433 13.4983 52.2997 14.1984 53.6331 14.1984H59.3998C62.9331 14.1984 65.8331 17.0984 65.8331 20.6317V26.3318C65.8331 27.6318 66.5331 29.4984 67.3664 30.4984L71.8664 35.7983C73.7997 38.0983 73.7997 41.8316 71.8664 44.1316L67.3664 49.4317C66.5331 50.4317 65.8331 52.2984 65.8331 53.5984V59.2983C65.8331 62.8316 62.9331 65.7316 59.3998 65.7316H53.6331C52.3331 65.7316 50.433 66.4317 49.433 67.2984L44.1664 71.8316Z" fill="#877CF3"/>
<path d="M24.7338 43.1015C25.3671 44.0015 26.4338 44.5015 27.7004 44.5015H34.2005C34.6338 44.5015 35.0338 44.6682 35.3004 45.0015C35.5671 45.3349 35.7004 45.7682 35.6338 46.2349L34.8338 51.4349C34.5005 52.9682 35.5337 54.7349 37.0671 55.2349C38.5004 55.7682 40.2005 55.0349 40.8671 54.0349L47.3338 44.4349V45.6349C47.3338 47.9682 48.3337 48.9349 50.8004 48.9349H52.4338C54.9005 48.9349 55.9004 47.9682 55.9004 45.6349V29.7015C55.9004 27.3681 54.9005 26.4015 52.4338 26.4015H50.8004C48.4671 26.4015 47.4671 27.3016 47.3671 29.4349L42.4671 25.6682C41.8004 25.0016 40.3004 24.6349 39.2337 24.6349H33.0671C30.9338 24.6349 28.8004 26.2349 28.3338 28.2016L24.4337 40.0683C24.0004 41.1349 24.1005 42.2348 24.7338 43.1015Z" fill="white"/>
</svg>
