<svg width="1840" height="835" viewBox="0 0 1840 835" fill="none" xmlns="http://www.w3.org/2000/svg">
<g clip-path="url(#clip0_228_4639)">
<rect width="1840" height="835" fill="url(#paint0_radial_228_4639)"/>
<g opacity="0.42" filter="url(#filter0_f_228_4639)">
<path d="M234.676 906L-29.2793 430.436V323.967L234.676 906Z" fill="white"/>
</g>
<g opacity="0.42" filter="url(#filter1_f_228_4639)">
<path d="M1779.65 906L1515.7 430.436V323.967L1779.65 906Z" fill="white"/>
</g>
<g opacity="0.3" clip-path="url(#clip1_228_4639)">
<mask id="path-3-inside-1_228_4639" fill="white">
<path d="M59.4453 702.59L59.4453 -539.554L-10.6471 -539.554L-10.6471 702.59L59.4453 702.59Z"/>
</mask>
<path d="M59.4453 702.59L59.4453 -539.554L-10.6471 -539.554L-10.6471 702.59L59.4453 702.59Z" fill="url(#paint1_radial_228_4639)"/>
<path d="M-10.6471 -539.554L-9.75986 -539.554L-9.75981 702.59L-10.6471 702.59L-11.5343 702.59L-11.5344 -539.554L-10.6471 -539.554Z" fill="url(#paint2_radial_228_4639)" mask="url(#path-3-inside-1_228_4639)"/>
<mask id="path-5-inside-2_228_4639" fill="white">
<path d="M129.539 586.361L129.539 -539.554L59.4466 -539.554L59.4467 586.361L129.539 586.361Z"/>
</mask>
<path d="M129.539 586.361L129.539 -539.554L59.4466 -539.554L59.4467 586.361L129.539 586.361Z" fill="url(#paint3_radial_228_4639)"/>
<path d="M59.4466 -539.554L60.3339 -539.554L60.3339 586.361L59.4467 586.361L58.5594 586.361L58.5594 -539.554L59.4466 -539.554Z" fill="url(#paint4_radial_228_4639)" mask="url(#path-5-inside-2_228_4639)"/>
<mask id="path-7-inside-3_228_4639" fill="white">
<path d="M199.631 702.59L199.631 -539.554L129.538 -539.554L129.538 702.59L199.631 702.59Z"/>
</mask>
<path d="M199.631 702.59L199.631 -539.554L129.538 -539.554L129.538 702.59L199.631 702.59Z" fill="url(#paint5_radial_228_4639)"/>
<path d="M129.538 -539.554L130.426 -539.554L130.426 702.59L129.538 702.59L128.651 702.59L128.651 -539.554L129.538 -539.554Z" fill="url(#paint6_radial_228_4639)" mask="url(#path-7-inside-3_228_4639)"/>
</g>
<g opacity="0.3" clip-path="url(#clip2_228_4639)">
<mask id="path-9-inside-4_228_4639" fill="white">
<path d="M1759.26 702.59L1759.26 -539.554L1829.35 -539.554L1829.35 702.59L1759.26 702.59Z"/>
</mask>
<path d="M1759.26 702.59L1759.26 -539.554L1829.35 -539.554L1829.35 702.59L1759.26 702.59Z" fill="url(#paint7_radial_228_4639)"/>
<path d="M1829.35 -539.554L1828.47 -539.554L1828.47 702.59L1829.35 702.59L1830.24 702.59L1830.24 -539.554L1829.35 -539.554Z" fill="url(#paint8_radial_228_4639)" mask="url(#path-9-inside-4_228_4639)"/>
<mask id="path-11-inside-5_228_4639" fill="white">
<path d="M1689.17 586.361L1689.17 -539.554L1759.26 -539.554L1759.26 586.361L1689.17 586.361Z"/>
</mask>
<path d="M1689.17 586.361L1689.17 -539.554L1759.26 -539.554L1759.26 586.361L1689.17 586.361Z" fill="url(#paint9_radial_228_4639)"/>
<path d="M1759.26 -539.554L1758.37 -539.554L1758.37 586.361L1759.26 586.361L1760.15 586.361L1760.15 -539.554L1759.26 -539.554Z" fill="url(#paint10_radial_228_4639)" mask="url(#path-11-inside-5_228_4639)"/>
<mask id="path-13-inside-6_228_4639" fill="white">
<path d="M1619.08 702.59L1619.08 -539.554L1689.17 -539.554L1689.17 702.59L1619.08 702.59Z"/>
</mask>
<path d="M1619.08 702.59L1619.08 -539.554L1689.17 -539.554L1689.17 702.59L1619.08 702.59Z" fill="url(#paint11_radial_228_4639)"/>
<path d="M1689.17 -539.554L1688.28 -539.554L1688.28 702.59L1689.17 702.59L1690.06 702.59L1690.06 -539.554L1689.17 -539.554Z" fill="url(#paint12_radial_228_4639)" mask="url(#path-13-inside-6_228_4639)"/>
</g>
<circle opacity="0.61" cx="1683.23" cy="33.0575" r="1.77449" transform="rotate(180 1683.23 33.0575)" fill="white"/>
<circle opacity="0.61" cx="2.21811" cy="2.21811" r="2.21811" transform="matrix(0.998714 0.0507016 0.0507016 -0.998714 86.2266 7.79883)" fill="white"/>
<circle opacity="0.23" cx="1683.23" cy="123.557" r="0.887246" transform="rotate(180 1683.23 123.557)" fill="white"/>
<circle opacity="0.23" cx="1.33087" cy="1.33087" r="1.33087" transform="matrix(0.998714 0.0507016 0.0507016 -0.998714 78.9297 97.2446)" fill="white"/>
<circle opacity="0.68" cx="1563.17" cy="65.8859" r="1.33087" transform="rotate(180 1563.17 65.8859)" fill="white"/>
<circle opacity="0.68" cx="0.887246" cy="0.887246" r="0.887246" transform="matrix(0.998714 0.0507016 0.0507016 -0.998714 204.949 42.9912)" fill="white"/>
<circle opacity="0.13" cx="1788.98" cy="154.611" r="1.33087" transform="rotate(180 1788.98 154.611)" fill="white"/>
<circle opacity="0.13" cx="2.66174" cy="2.66174" r="2.66174" transform="matrix(0.998714 0.0507016 0.0507016 -0.998714 23.8613 126.69)" fill="white"/>
<circle opacity="0.66" cx="1797.86" cy="82.7436" r="1.77449" transform="rotate(180 1797.86 82.7436)" fill="white"/>
<circle opacity="0.66" cx="2.21811" cy="2.21811" r="2.21811" transform="matrix(0.998714 0.0507016 0.0507016 -0.998714 15.4746 53.9565)" fill="white"/>
<circle opacity="0.59" cx="1675.24" cy="223.815" r="2.66174" transform="rotate(180 1675.24 223.815)" fill="white"/>
<circle opacity="0.59" cx="2.66174" cy="2.66174" r="2.66174" transform="matrix(0.998714 0.0507016 0.0507016 -0.998714 88.6074 199.25)" fill="white"/>
<circle opacity="0.44" cx="1385.55" cy="49.0283" r="0.887246" transform="rotate(180 1385.55 49.0283)" fill="white"/>
<circle opacity="0.44" cx="1.33087" cy="1.33087" r="1.33087" transform="matrix(0.998714 0.0507016 0.0507016 -0.998714 383.768 33.2104)" fill="white"/>
<circle opacity="0.62" cx="1489.53" cy="24.1857" r="1.33087" transform="rotate(180 1489.53 24.1857)" fill="white"/>
<circle opacity="0.62" cx="1.33087" cy="1.33087" r="1.33087" transform="matrix(0.998714 0.0507016 0.0507016 -0.998714 277.416 5.42871)" fill="white"/>
<circle opacity="0.31" cx="1117.14" cy="164.37" r="2.66174" transform="rotate(180 1117.14 164.37)" fill="white"/>
<circle opacity="0.31" cx="1.33087" cy="1.33087" r="1.33087" transform="matrix(0.998714 0.0507016 0.0507016 -0.998714 644.193 110.02)" fill="white"/>
<circle opacity="0.23" cx="1261.16" cy="15.3129" r="1.77449" transform="rotate(180 1261.16 15.3129)" fill="white"/>
<circle opacity="0.23" cx="2.21811" cy="2.21811" r="2.21811" transform="matrix(0.998714 0.0507016 0.0507016 -0.998714 512.469 4.43066)" fill="white"/>
<circle opacity="0.21" cx="575.121" cy="35.7197" r="0.887246" transform="rotate(180 575.121 35.7197)" fill="white"/>
<circle opacity="0.21" cx="1.77449" cy="1.77449" r="1.77449" transform="matrix(0.998714 0.0507016 0.0507016 -0.998714 1144.59 47.1499)" fill="white"/>
<circle opacity="0.36" cx="632.964" cy="159.934" r="1.33087" transform="rotate(180 632.964 159.934)" fill="white"/>
<circle opacity="0.36" cx="2.66174" cy="2.66174" r="2.66174" transform="matrix(0.998714 0.0507016 0.0507016 -0.998714 1129.48 171.551)" fill="white"/>
<circle opacity="0.43" cx="280.098" cy="28.6215" r="2.66174" transform="rotate(180 280.098 28.6215)" fill="white"/>
<circle opacity="0.43" cx="0.887246" cy="0.887246" r="0.887246" transform="matrix(0.998714 0.0507016 0.0507016 -0.998714 1486.07 49.3818)" fill="white"/>
<circle opacity="0.39" cx="148.615" cy="198.973" r="0.887246" transform="rotate(180 148.615 198.973)" fill="white"/>
<circle opacity="0.39" cx="0.887246" cy="0.887246" r="0.887246" transform="matrix(0.998714 0.0507016 0.0507016 -0.998714 1559.77 223.767)" fill="white"/>
<circle opacity="0.16" cx="77.6337" cy="53.4648" r="1.77449" transform="rotate(180 77.6337 53.4648)" fill="white"/>
<circle opacity="0.16" cx="2.66174" cy="2.66174" r="2.66174" transform="matrix(0.998714 0.0507016 0.0507016 -0.998714 1693.46 83.957)" fill="white"/>
<circle opacity="0.55" cx="54.5651" cy="261.08" r="2.21811" transform="rotate(180 54.5651 261.08)" fill="white"/>
<circle opacity="0.55" cx="1.77449" cy="1.77449" r="1.77449" transform="matrix(0.998714 0.0507016 0.0507016 -0.998714 1702.36 291.517)" fill="white"/>
<circle opacity="0.66" cx="13.7531" cy="136.865" r="1.33087" transform="rotate(180 13.7531 136.865)" fill="white"/>
<circle opacity="0.66" cx="2.66174" cy="2.66174" r="2.66174" transform="matrix(0.998714 0.0507016 0.0507016 -0.998714 1798.44 170.463)" fill="white"/>
<circle opacity="0.55" cx="90.0561" cy="145.738" r="0.887246" transform="rotate(180 90.0561 145.738)" fill="white"/>
<circle opacity="0.55" cx="2.21811" cy="2.21811" r="2.21811" transform="matrix(0.998714 0.0507016 0.0507016 -0.998714 1670.48 174.899)" fill="white"/>
<circle opacity="0.03" cx="18.1879" cy="24.1854" r="2.66174" transform="rotate(180 18.1879 24.1854)" fill="white"/>
<circle opacity="0.03" cx="2.66174" cy="2.66174" r="2.66174" transform="matrix(0.998714 0.0507016 0.0507016 -0.998714 1800.62 57.7275)" fill="white"/>
<path d="M0 -73.3291V1079.89" stroke="#B3B3B3" stroke-opacity="0.3" stroke-width="0.5"/>
<path d="M89.5234 -73.3291V1079.89" stroke="#B3B3B3" stroke-opacity="0.3" stroke-width="0.5"/>
<path d="M179.049 -73.3291V1079.89" stroke="#B3B3B3" stroke-opacity="0.3" stroke-width="0.5"/>
<path d="M268.57 -73.3291V1079.89" stroke="#B3B3B3" stroke-opacity="0.3" stroke-width="0.5"/>
<path d="M358.096 -73.3291V1079.89" stroke="#B3B3B3" stroke-opacity="0.3" stroke-width="0.5"/>
<path d="M447.619 -73.3291V1079.89" stroke="#B3B3B3" stroke-opacity="0.3" stroke-width="0.5"/>
<path d="M537.143 -73.3291V1079.89" stroke="#B3B3B3" stroke-opacity="0.3" stroke-width="0.5"/>
<path d="M626.666 -73.3291V1079.89" stroke="#B3B3B3" stroke-opacity="0.3" stroke-width="0.5"/>
<path d="M716.191 -73.3291V1079.89" stroke="#B3B3B3" stroke-opacity="0.3" stroke-width="0.5"/>
<path d="M805.715 -73.3291V1079.89" stroke="#B3B3B3" stroke-opacity="0.3" stroke-width="0.5"/>
<path d="M895.238 -73.3291V1079.89" stroke="#B3B3B3" stroke-opacity="0.3" stroke-width="0.5"/>
<path d="M984.762 -73.3291V1079.89" stroke="#B3B3B3" stroke-opacity="0.3" stroke-width="0.5"/>
<path d="M1074.29 -73.3291V1079.89" stroke="#B3B3B3" stroke-opacity="0.3" stroke-width="0.5"/>
<path d="M1163.81 -73.3291V1079.89" stroke="#B3B3B3" stroke-opacity="0.3" stroke-width="0.5"/>
<path d="M1253.33 -73.3291V1079.89" stroke="#B3B3B3" stroke-opacity="0.3" stroke-width="0.5"/>
<path d="M1342.86 -73.3291V1079.89" stroke="#B3B3B3" stroke-opacity="0.3" stroke-width="0.5"/>
<path d="M1432.38 -73.3291V1079.89" stroke="#B3B3B3" stroke-opacity="0.3" stroke-width="0.5"/>
<path d="M1521.9 -73.3291V1079.89" stroke="#B3B3B3" stroke-opacity="0.3" stroke-width="0.5"/>
<path d="M1611.43 -73.3291V1079.89" stroke="#B3B3B3" stroke-opacity="0.3" stroke-width="0.5"/>
<path d="M1700.95 -73.3291V1079.89" stroke="#B3B3B3" stroke-opacity="0.3" stroke-width="0.5"/>
<path d="M1790.48 -73.3291V1079.89" stroke="#B3B3B3" stroke-opacity="0.3" stroke-width="0.5"/>
<path d="M0 791.586H1880" stroke="#B3B3B3" stroke-opacity="0.3" stroke-width="0.5"/>
<path d="M0 695.485H1880" stroke="#B3B3B3" stroke-opacity="0.3" stroke-width="0.5"/>
<path d="M0 599.384H1880" stroke="#B3B3B3" stroke-opacity="0.3" stroke-width="0.5"/>
<path d="M0 503.281H1880" stroke="#B3B3B3" stroke-opacity="0.3" stroke-width="0.5"/>
<path d="M0 407.181H1880" stroke="#B3B3B3" stroke-opacity="0.3" stroke-width="0.5"/>
<path d="M0 311.079H1880" stroke="#B3B3B3" stroke-opacity="0.3" stroke-width="0.5"/>
<path d="M0 214.976H1880" stroke="#B3B3B3" stroke-opacity="0.3" stroke-width="0.5"/>
<path d="M0 118.875H1880" stroke="#B3B3B3" stroke-opacity="0.3" stroke-width="0.5"/>
<path d="M0 22.7744H1880" stroke="#B3B3B3" stroke-opacity="0.3" stroke-width="0.5"/>
</g>
<defs>
<filter id="filter0_f_228_4639" x="-94.0482" y="259.198" width="393.493" height="711.571" filterUnits="userSpaceOnUse" color-interpolation-filters="sRGB">
<feFlood flood-opacity="0" result="BackgroundImageFix"/>
<feBlend mode="normal" in="SourceGraphic" in2="BackgroundImageFix" result="shape"/>
<feGaussianBlur stdDeviation="32.3845" result="effect1_foregroundBlur_228_4639"/>
</filter>
<filter id="filter1_f_228_4639" x="1450.93" y="259.198" width="393.493" height="711.571" filterUnits="userSpaceOnUse" color-interpolation-filters="sRGB">
<feFlood flood-opacity="0" result="BackgroundImageFix"/>
<feBlend mode="normal" in="SourceGraphic" in2="BackgroundImageFix" result="shape"/>
<feGaussianBlur stdDeviation="32.3845" result="effect1_foregroundBlur_228_4639"/>
</filter>
<radialGradient id="paint0_radial_228_4639" cx="0" cy="0" r="1" gradientUnits="userSpaceOnUse" gradientTransform="translate(898.605) rotate(90) scale(909.736 3927.07)">
<stop offset="0.205629" stop-color="white"/>
<stop offset="1" stop-color="#877CF3"/>
</radialGradient>
<radialGradient id="paint1_radial_228_4639" cx="0" cy="0" r="1" gradientUnits="userSpaceOnUse" gradientTransform="translate(-10.6471 81.5178) rotate(180) scale(61.6636 338.817)">
<stop stop-color="white" stop-opacity="0.2"/>
<stop offset="1" stop-color="white" stop-opacity="0"/>
</radialGradient>
<radialGradient id="paint2_radial_228_4639" cx="0" cy="0" r="1" gradientUnits="userSpaceOnUse" gradientTransform="translate(-10.6471 81.5178) scale(420.554 231.206)">
<stop stop-color="white" stop-opacity="0.6"/>
<stop offset="1" stop-color="white" stop-opacity="0"/>
</radialGradient>
<radialGradient id="paint3_radial_228_4639" cx="0" cy="0" r="1" gradientUnits="userSpaceOnUse" gradientTransform="translate(59.4466 23.4034) rotate(180) scale(61.6636 307.113)">
<stop stop-color="white" stop-opacity="0.2"/>
<stop offset="1" stop-color="white" stop-opacity="0"/>
</radialGradient>
<radialGradient id="paint4_radial_228_4639" cx="0" cy="0" r="1" gradientUnits="userSpaceOnUse" gradientTransform="translate(59.4467 23.4034) scale(420.554 209.572)">
<stop stop-color="white" stop-opacity="0.6"/>
<stop offset="1" stop-color="white" stop-opacity="0"/>
</radialGradient>
<radialGradient id="paint5_radial_228_4639" cx="0" cy="0" r="1" gradientUnits="userSpaceOnUse" gradientTransform="translate(129.538 81.5178) rotate(180) scale(61.6636 338.817)">
<stop stop-color="white" stop-opacity="0.2"/>
<stop offset="1" stop-color="white" stop-opacity="0"/>
</radialGradient>
<radialGradient id="paint6_radial_228_4639" cx="0" cy="0" r="1" gradientUnits="userSpaceOnUse" gradientTransform="translate(129.538 81.5178) scale(420.554 231.206)">
<stop stop-color="white" stop-opacity="0.6"/>
<stop offset="1" stop-color="white" stop-opacity="0"/>
</radialGradient>
<radialGradient id="paint7_radial_228_4639" cx="0" cy="0" r="1" gradientUnits="userSpaceOnUse" gradientTransform="translate(1829.35 81.5178) scale(61.6636 338.817)">
<stop stop-color="white" stop-opacity="0.2"/>
<stop offset="1" stop-color="white" stop-opacity="0"/>
</radialGradient>
<radialGradient id="paint8_radial_228_4639" cx="0" cy="0" r="1" gradientUnits="userSpaceOnUse" gradientTransform="translate(1829.35 81.5178) rotate(-180) scale(420.554 231.206)">
<stop stop-color="white" stop-opacity="0.6"/>
<stop offset="1" stop-color="white" stop-opacity="0"/>
</radialGradient>
<radialGradient id="paint9_radial_228_4639" cx="0" cy="0" r="1" gradientUnits="userSpaceOnUse" gradientTransform="translate(1759.26 23.4034) scale(61.6636 307.113)">
<stop stop-color="white" stop-opacity="0.2"/>
<stop offset="1" stop-color="white" stop-opacity="0"/>
</radialGradient>
<radialGradient id="paint10_radial_228_4639" cx="0" cy="0" r="1" gradientUnits="userSpaceOnUse" gradientTransform="translate(1759.26 23.4034) rotate(-180) scale(420.554 209.572)">
<stop stop-color="white" stop-opacity="0.6"/>
<stop offset="1" stop-color="white" stop-opacity="0"/>
</radialGradient>
<radialGradient id="paint11_radial_228_4639" cx="0" cy="0" r="1" gradientUnits="userSpaceOnUse" gradientTransform="translate(1689.17 81.5178) scale(61.6636 338.817)">
<stop stop-color="white" stop-opacity="0.2"/>
<stop offset="1" stop-color="white" stop-opacity="0"/>
</radialGradient>
<radialGradient id="paint12_radial_228_4639" cx="0" cy="0" r="1" gradientUnits="userSpaceOnUse" gradientTransform="translate(1689.17 81.5178) rotate(-180) scale(420.554 231.206)">
<stop stop-color="white" stop-opacity="0.6"/>
<stop offset="1" stop-color="white" stop-opacity="0"/>
</radialGradient>
<clipPath id="clip0_228_4639">
<rect width="1840" height="835" fill="white"/>
</clipPath>
<clipPath id="clip1_228_4639">
<rect width="210.277" height="611.312" fill="white" transform="matrix(1 0 0 -1 -10.6465 600.557)"/>
</clipPath>
<clipPath id="clip2_228_4639">
<rect width="210.277" height="611.312" fill="white" transform="matrix(-1 0 0 -1 1829.35 600.557)"/>
</clipPath>
</defs>
</svg>
