<svg width="26" height="27" viewBox="0 0 26 27" fill="none" xmlns="http://www.w3.org/2000/svg">
<path d="M3.43433 8.91315L13.0001 14.449L22.501 8.94562" stroke="white" stroke-width="1.8" stroke-linecap="round" stroke-linejoin="round"/>
<path d="M13.0002 24.264V14.4381" stroke="white" stroke-width="1.8" stroke-linecap="round" stroke-linejoin="round"/>
<path d="M23.411 14.7524V10.7873C23.411 9.29232 22.3385 7.47234 21.0277 6.7465L15.2427 3.53981C14.0077 2.84648 11.9927 2.84648 10.7577 3.53981L4.97267 6.7465C3.66184 7.47234 2.58936 9.29232 2.58936 10.7873V16.919C2.58936 18.414 3.66184 20.234 4.97267 20.9598L10.7577 24.1665C11.3752 24.5132 12.1877 24.6865 13.0002 24.6865C13.8127 24.6865 14.6252 24.5132 15.2427 24.1665" stroke="white" stroke-width="1.8" stroke-linecap="round" stroke-linejoin="round"/>
<path d="M20.8002 24.0365C22.7148 24.0365 24.2668 22.4844 24.2668 20.5698C24.2668 18.6552 22.7148 17.1031 20.8002 17.1031C18.8856 17.1031 17.3335 18.6552 17.3335 20.5698C17.3335 22.4844 18.8856 24.0365 20.8002 24.0365Z" stroke="white" stroke-width="1.8" stroke-linecap="round" stroke-linejoin="round"/>
<path d="M24.9168 24.6865L23.8335 23.6031" stroke="white" stroke-width="1.8" stroke-linecap="round" stroke-linejoin="round"/>
</svg>
