<svg width="26" height="27" viewBox="0 0 26 27" fill="none" xmlns="http://www.w3.org/2000/svg">
<path d="M3.43433 8.56001L13.0001 14.0958L22.501 8.59247" stroke="black" stroke-width="1.8" stroke-linecap="round" stroke-linejoin="round"/>
<path d="M13.0002 23.9108V14.085" stroke="black" stroke-width="1.8" stroke-linecap="round" stroke-linejoin="round"/>
<path d="M23.411 14.3992V10.4342C23.411 8.93917 22.3385 7.11919 21.0277 6.39335L15.2427 3.18666C14.0077 2.49333 11.9927 2.49333 10.7577 3.18666L4.97267 6.39335C3.66184 7.11919 2.58936 8.93917 2.58936 10.4342V16.5659C2.58936 18.0609 3.66184 19.8808 4.97267 20.6067L10.7577 23.8134C11.3752 24.16 12.1877 24.3334 13.0002 24.3334C13.8127 24.3334 14.6252 24.16 15.2427 23.8134" stroke="black" stroke-width="1.8" stroke-linecap="round" stroke-linejoin="round"/>
<path d="M20.8002 23.6834C22.7148 23.6834 24.2668 22.1313 24.2668 20.2167C24.2668 18.3021 22.7148 16.75 20.8002 16.75C18.8856 16.75 17.3335 18.3021 17.3335 20.2167C17.3335 22.1313 18.8856 23.6834 20.8002 23.6834Z" stroke="black" stroke-width="1.8" stroke-linecap="round" stroke-linejoin="round"/>
<path d="M24.9168 24.3333L23.8335 23.25" stroke="black" stroke-width="1.8" stroke-linecap="round" stroke-linejoin="round"/>
</svg>
