<svg width="1840" height="1127" viewBox="0 0 1840 1127" fill="none" xmlns="http://www.w3.org/2000/svg">
<g clip-path="url(#clip0_183_8327)" filter="url(#filter0_iii_183_8327)">
<rect width="1840" height="1127" fill="url(#paint0_radial_183_8327)"/>
<g opacity="0.42" filter="url(#filter1_f_183_8327)">
<path d="M234.676 582.033L-29.2793 106.469V0L234.676 582.033Z" fill="white"/>
</g>
<g opacity="0.42" filter="url(#filter2_f_183_8327)">
<path d="M1779.65 582.033L1515.7 106.469V0L1779.65 582.033Z" fill="white"/>
</g>
<g opacity="0.3" clip-path="url(#clip1_183_8327)">
<mask id="path-3-inside-1_183_8327" fill="white">
<path d="M59.4463 702.59L59.4462 -539.554L-10.6461 -539.554L-10.6461 702.59L59.4463 702.59Z"/>
</mask>
<path d="M59.4463 702.59L59.4462 -539.554L-10.6461 -539.554L-10.6461 702.59L59.4463 702.59Z" fill="url(#paint1_radial_183_8327)"/>
<path d="M-10.6461 -539.554L-9.75889 -539.554L-9.75883 702.59L-10.6461 702.59L-11.5333 702.59L-11.5334 -539.554L-10.6461 -539.554Z" fill="url(#paint2_radial_183_8327)" mask="url(#path-3-inside-1_183_8327)"/>
<mask id="path-5-inside-2_183_8327" fill="white">
<path d="M129.538 586.361L129.538 -539.554L59.4457 -539.554L59.4457 586.361L129.538 586.361Z"/>
</mask>
<path d="M129.538 586.361L129.538 -539.554L59.4457 -539.554L59.4457 586.361L129.538 586.361Z" fill="url(#paint3_radial_183_8327)"/>
<path d="M59.4457 -539.554L60.3329 -539.554L60.333 586.361L59.4457 586.361L58.5585 586.361L58.5584 -539.554L59.4457 -539.554Z" fill="url(#paint4_radial_183_8327)" mask="url(#path-5-inside-2_183_8327)"/>
<mask id="path-7-inside-3_183_8327" fill="white">
<path d="M199.631 702.59L199.631 -539.554L129.538 -539.554L129.538 702.59L199.631 702.59Z"/>
</mask>
<path d="M199.631 702.59L199.631 -539.554L129.538 -539.554L129.538 702.59L199.631 702.59Z" fill="url(#paint5_radial_183_8327)"/>
<path d="M129.538 -539.554L130.426 -539.554L130.426 702.59L129.538 702.59L128.651 702.59L128.651 -539.554L129.538 -539.554Z" fill="url(#paint6_radial_183_8327)" mask="url(#path-7-inside-3_183_8327)"/>
</g>
<g opacity="0.3" clip-path="url(#clip2_183_8327)">
<mask id="path-9-inside-4_183_8327" fill="white">
<path d="M1759.26 702.59L1759.26 -539.554L1829.35 -539.554L1829.35 702.59L1759.26 702.59Z"/>
</mask>
<path d="M1759.26 702.59L1759.26 -539.554L1829.35 -539.554L1829.35 702.59L1759.26 702.59Z" fill="url(#paint7_radial_183_8327)"/>
<path d="M1829.35 -539.554L1828.47 -539.554L1828.47 702.59L1829.35 702.59L1830.24 702.59L1830.24 -539.554L1829.35 -539.554Z" fill="url(#paint8_radial_183_8327)" mask="url(#path-9-inside-4_183_8327)"/>
<mask id="path-11-inside-5_183_8327" fill="white">
<path d="M1689.17 586.361L1689.17 -539.554L1759.26 -539.554L1759.26 586.361L1689.17 586.361Z"/>
</mask>
<path d="M1689.17 586.361L1689.17 -539.554L1759.26 -539.554L1759.26 586.361L1689.17 586.361Z" fill="url(#paint9_radial_183_8327)"/>
<path d="M1759.26 -539.554L1758.37 -539.554L1758.37 586.361L1759.26 586.361L1760.15 586.361L1760.15 -539.554L1759.26 -539.554Z" fill="url(#paint10_radial_183_8327)" mask="url(#path-11-inside-5_183_8327)"/>
<mask id="path-13-inside-6_183_8327" fill="white">
<path d="M1619.08 702.59L1619.08 -539.554L1689.17 -539.554L1689.17 702.59L1619.08 702.59Z"/>
</mask>
<path d="M1619.08 702.59L1619.08 -539.554L1689.17 -539.554L1689.17 702.59L1619.08 702.59Z" fill="url(#paint11_radial_183_8327)"/>
<path d="M1689.17 -539.554L1688.28 -539.554L1688.28 702.59L1689.17 702.59L1690.06 702.59L1690.06 -539.554L1689.17 -539.554Z" fill="url(#paint12_radial_183_8327)" mask="url(#path-13-inside-6_183_8327)"/>
</g>
<circle opacity="0.61" cx="1683.23" cy="73.058" r="1.77449" transform="rotate(180 1683.23 73.058)" fill="white"/>
<circle opacity="0.61" cx="2.21811" cy="2.21811" r="2.21811" transform="matrix(0.998714 0.0507016 0.0507016 -0.998714 86.2266 47.7993)" fill="white"/>
<circle opacity="0.23" cx="1683.23" cy="163.557" r="0.887246" transform="rotate(180 1683.23 163.557)" fill="white"/>
<circle opacity="0.23" cx="1.33087" cy="1.33087" r="1.33087" transform="matrix(0.998714 0.0507016 0.0507016 -0.998714 78.9307 137.245)" fill="white"/>
<circle opacity="0.68" cx="1563.17" cy="105.886" r="1.33087" transform="rotate(180 1563.17 105.886)" fill="white"/>
<circle opacity="0.68" cx="0.887246" cy="0.887246" r="0.887246" transform="matrix(0.998714 0.0507016 0.0507016 -0.998714 204.949 82.9911)" fill="white"/>
<circle opacity="0.13" cx="1788.99" cy="194.611" r="1.33087" transform="rotate(180 1788.99 194.611)" fill="white"/>
<circle opacity="0.13" cx="2.66174" cy="2.66174" r="2.66174" transform="matrix(0.998714 0.0507016 0.0507016 -0.998714 23.8633 166.69)" fill="white"/>
<circle opacity="0.66" cx="1797.86" cy="122.744" r="1.77449" transform="rotate(180 1797.86 122.744)" fill="white"/>
<circle opacity="0.66" cx="2.21811" cy="2.21811" r="2.21811" transform="matrix(0.998714 0.0507016 0.0507016 -0.998714 15.4756 93.9569)" fill="white"/>
<circle opacity="0.59" cx="1675.25" cy="263.816" r="2.66174" transform="rotate(180 1675.25 263.816)" fill="white"/>
<circle opacity="0.59" cx="2.66174" cy="2.66174" r="2.66174" transform="matrix(0.998714 0.0507016 0.0507016 -0.998714 88.6074 239.25)" fill="white"/>
<circle opacity="0.44" cx="1385.55" cy="89.0285" r="0.887246" transform="rotate(180 1385.55 89.0285)" fill="white"/>
<circle opacity="0.44" cx="1.33087" cy="1.33087" r="1.33087" transform="matrix(0.998714 0.0507016 0.0507016 -0.998714 383.769 73.2106)" fill="white"/>
<circle opacity="0.62" cx="1489.53" cy="64.1856" r="1.33087" transform="rotate(180 1489.53 64.1856)" fill="white"/>
<circle opacity="0.62" cx="1.33087" cy="1.33087" r="1.33087" transform="matrix(0.998714 0.0507016 0.0507016 -0.998714 277.416 45.4287)" fill="white"/>
<circle opacity="0.31" cx="1117.14" cy="204.37" r="2.66174" transform="rotate(180 1117.14 204.37)" fill="white"/>
<circle opacity="0.31" cx="1.33087" cy="1.33087" r="1.33087" transform="matrix(0.998714 0.0507016 0.0507016 -0.998714 644.193 150.02)" fill="white"/>
<circle opacity="0.23" cx="1261.16" cy="55.3132" r="1.77449" transform="rotate(180 1261.16 55.3132)" fill="white"/>
<circle opacity="0.23" cx="2.21811" cy="2.21811" r="2.21811" transform="matrix(0.998714 0.0507016 0.0507016 -0.998714 512.47 44.4305)" fill="white"/>
<circle opacity="0.21" cx="575.122" cy="75.7198" r="0.887246" transform="rotate(180 575.122 75.7198)" fill="white"/>
<circle opacity="0.21" cx="1.77449" cy="1.77449" r="1.77449" transform="matrix(0.998714 0.0507016 0.0507016 -0.998714 1144.6 87.15)" fill="white"/>
<circle opacity="0.36" cx="632.964" cy="199.934" r="1.33087" transform="rotate(180 632.964 199.934)" fill="white"/>
<circle opacity="0.36" cx="2.66174" cy="2.66174" r="2.66174" transform="matrix(0.998714 0.0507016 0.0507016 -0.998714 1129.49 211.552)" fill="white"/>
<circle opacity="0.43" cx="280.099" cy="68.6218" r="2.66174" transform="rotate(180 280.099 68.6218)" fill="white"/>
<circle opacity="0.43" cx="0.887246" cy="0.887246" r="0.887246" transform="matrix(0.998714 0.0507016 0.0507016 -0.998714 1486.07 89.3821)" fill="white"/>
<circle opacity="0.39" cx="148.615" cy="238.973" r="0.887246" transform="rotate(180 148.615 238.973)" fill="white"/>
<circle opacity="0.39" cx="0.887246" cy="0.887246" r="0.887246" transform="matrix(0.998714 0.0507016 0.0507016 -0.998714 1559.78 263.767)" fill="white"/>
<circle opacity="0.16" cx="77.6347" cy="93.4648" r="1.77449" transform="rotate(180 77.6347 93.4648)" fill="white"/>
<circle opacity="0.16" cx="2.66174" cy="2.66174" r="2.66174" transform="matrix(0.998714 0.0507016 0.0507016 -0.998714 1693.47 123.957)" fill="white"/>
<circle opacity="0.55" cx="54.5661" cy="301.08" r="2.21811" transform="rotate(180 54.5661 301.08)" fill="white"/>
<circle opacity="0.55" cx="1.77449" cy="1.77449" r="1.77449" transform="matrix(0.998714 0.0507016 0.0507016 -0.998714 1702.36 331.517)" fill="white"/>
<circle opacity="0.66" cx="13.7531" cy="176.866" r="1.33087" transform="rotate(180 13.7531 176.866)" fill="white"/>
<circle opacity="0.66" cx="2.66174" cy="2.66174" r="2.66174" transform="matrix(0.998714 0.0507016 0.0507016 -0.998714 1798.44 210.463)" fill="white"/>
<circle opacity="0.55" cx="90.0561" cy="185.738" r="0.887246" transform="rotate(180 90.0561 185.738)" fill="white"/>
<circle opacity="0.55" cx="2.21811" cy="2.21811" r="2.21811" transform="matrix(0.998714 0.0507016 0.0507016 -0.998714 1670.49 214.899)" fill="white"/>
<circle opacity="0.03" cx="18.1888" cy="64.1857" r="2.66174" transform="rotate(180 18.1888 64.1857)" fill="white"/>
<circle opacity="0.03" cx="2.66174" cy="2.66174" r="2.66174" transform="matrix(0.998714 0.0507016 0.0507016 -0.998714 1800.63 97.7277)" fill="white"/>
<path d="M69.5234 -73.3292V1079.89" stroke="#B3B3B3" stroke-opacity="0.3" stroke-width="0.5"/>
<path d="M159.048 -73.3292V1079.89" stroke="#B3B3B3" stroke-opacity="0.3" stroke-width="0.5"/>
<path d="M248.571 -73.3292V1079.89" stroke="#B3B3B3" stroke-opacity="0.3" stroke-width="0.5"/>
<path d="M338.096 -73.3292V1079.89" stroke="#B3B3B3" stroke-opacity="0.3" stroke-width="0.5"/>
<path d="M427.619 -73.3292V1079.89" stroke="#B3B3B3" stroke-opacity="0.3" stroke-width="0.5"/>
<path d="M517.143 -73.3292V1079.89" stroke="#B3B3B3" stroke-opacity="0.3" stroke-width="0.5"/>
<path d="M606.666 -73.3292V1079.89" stroke="#B3B3B3" stroke-opacity="0.3" stroke-width="0.5"/>
<path d="M696.19 -73.3292V1079.89" stroke="#B3B3B3" stroke-opacity="0.3" stroke-width="0.5"/>
<path d="M785.715 -73.3292V1079.89" stroke="#B3B3B3" stroke-opacity="0.3" stroke-width="0.5"/>
<path d="M875.238 -73.3292V1079.89" stroke="#B3B3B3" stroke-opacity="0.3" stroke-width="0.5"/>
<path d="M964.762 -73.3292V1079.89" stroke="#B3B3B3" stroke-opacity="0.3" stroke-width="0.5"/>
<path d="M1054.29 -73.3292V1079.89" stroke="#B3B3B3" stroke-opacity="0.3" stroke-width="0.5"/>
<path d="M1143.81 -73.3292V1079.89" stroke="#B3B3B3" stroke-opacity="0.3" stroke-width="0.5"/>
<path d="M1233.33 -73.3292V1079.89" stroke="#B3B3B3" stroke-opacity="0.3" stroke-width="0.5"/>
<path d="M1322.86 -73.3292V1079.89" stroke="#B3B3B3" stroke-opacity="0.3" stroke-width="0.5"/>
<path d="M1412.38 -73.3292V1079.89" stroke="#B3B3B3" stroke-opacity="0.3" stroke-width="0.5"/>
<path d="M1501.9 -73.3292V1079.89" stroke="#B3B3B3" stroke-opacity="0.3" stroke-width="0.5"/>
<path d="M1591.43 -73.3292V1079.89" stroke="#B3B3B3" stroke-opacity="0.3" stroke-width="0.5"/>
<path d="M1680.95 -73.3292V1079.89" stroke="#B3B3B3" stroke-opacity="0.3" stroke-width="0.5"/>
<path d="M1770.48 -73.3292V1079.89" stroke="#B3B3B3" stroke-opacity="0.3" stroke-width="0.5"/>
<path d="M-20 1079.89H1860" stroke="#B3B3B3" stroke-opacity="0.3" stroke-width="0.5"/>
<path d="M-20 983.79H1860" stroke="#B3B3B3" stroke-opacity="0.3" stroke-width="0.5"/>
<path d="M-20 887.689H1860" stroke="#B3B3B3" stroke-opacity="0.3" stroke-width="0.5"/>
<path d="M-20 791.586H1860" stroke="#B3B3B3" stroke-opacity="0.3" stroke-width="0.5"/>
<path d="M-20 695.485H1860" stroke="#B3B3B3" stroke-opacity="0.3" stroke-width="0.5"/>
<path d="M-20 599.383H1860" stroke="#B3B3B3" stroke-opacity="0.3" stroke-width="0.5"/>
<path d="M-20 503.281H1860" stroke="#B3B3B3" stroke-opacity="0.3" stroke-width="0.5"/>
<path d="M-20 407.18H1860" stroke="#B3B3B3" stroke-opacity="0.3" stroke-width="0.5"/>
<path d="M-20 311.079H1860" stroke="#B3B3B3" stroke-opacity="0.3" stroke-width="0.5"/>
<path d="M-20 214.975H1860" stroke="#B3B3B3" stroke-opacity="0.3" stroke-width="0.5"/>
<path d="M-20 118.875H1860" stroke="#B3B3B3" stroke-opacity="0.3" stroke-width="0.5"/>
<path d="M-20 22.7745H1860" stroke="#B3B3B3" stroke-opacity="0.3" stroke-width="0.5"/>
</g>
<defs>
<filter id="filter0_iii_183_8327" x="0" y="-32.8764" width="1840" height="1165.54" filterUnits="userSpaceOnUse" color-interpolation-filters="sRGB">
<feFlood flood-opacity="0" result="BackgroundImageFix"/>
<feBlend mode="normal" in="SourceGraphic" in2="BackgroundImageFix" result="shape"/>
<feColorMatrix in="SourceAlpha" type="matrix" values="0 0 0 0 0 0 0 0 0 0 0 0 0 0 0 0 0 0 127 0" result="hardAlpha"/>
<feMorphology radius="17.0051" operator="dilate" in="SourceAlpha" result="effect1_innerShadow_183_8327"/>
<feOffset dy="-56.6835"/>
<feGaussianBlur stdDeviation="24.9408"/>
<feComposite in2="hardAlpha" operator="arithmetic" k2="-1" k3="1"/>
<feColorMatrix type="matrix" values="0 0 0 0 1 0 0 0 0 1 0 0 0 0 1 0 0 0 1 0"/>
<feBlend mode="soft-light" in2="shape" result="effect1_innerShadow_183_8327"/>
<feColorMatrix in="SourceAlpha" type="matrix" values="0 0 0 0 0 0 0 0 0 0 0 0 0 0 0 0 0 0 127 0" result="hardAlpha"/>
<feMorphology radius="11.3367" operator="dilate" in="SourceAlpha" result="effect2_innerShadow_183_8327"/>
<feOffset dy="-22.6734"/>
<feGaussianBlur stdDeviation="4.8181"/>
<feComposite in2="hardAlpha" operator="arithmetic" k2="-1" k3="1"/>
<feColorMatrix type="matrix" values="0 0 0 0 1 0 0 0 0 1 0 0 0 0 1 0 0 0 0.59 0"/>
<feBlend mode="soft-light" in2="effect1_innerShadow_183_8327" result="effect2_innerShadow_183_8327"/>
<feColorMatrix in="SourceAlpha" type="matrix" values="0 0 0 0 0 0 0 0 0 0 0 0 0 0 0 0 0 0 127 0" result="hardAlpha"/>
<feOffset dy="5.66835"/>
<feGaussianBlur stdDeviation="8.50253"/>
<feComposite in2="hardAlpha" operator="arithmetic" k2="-1" k3="1"/>
<feColorMatrix type="matrix" values="0 0 0 0 1 0 0 0 0 1 0 0 0 0 1 0 0 0 0.22 0"/>
<feBlend mode="normal" in2="effect2_innerShadow_183_8327" result="effect3_innerShadow_183_8327"/>
</filter>
<filter id="filter1_f_183_8327" x="-94.0482" y="-64.7689" width="393.494" height="711.571" filterUnits="userSpaceOnUse" color-interpolation-filters="sRGB">
<feFlood flood-opacity="0" result="BackgroundImageFix"/>
<feBlend mode="normal" in="SourceGraphic" in2="BackgroundImageFix" result="shape"/>
<feGaussianBlur stdDeviation="32.3845" result="effect1_foregroundBlur_183_8327"/>
</filter>
<filter id="filter2_f_183_8327" x="1450.93" y="-64.7689" width="393.494" height="711.571" filterUnits="userSpaceOnUse" color-interpolation-filters="sRGB">
<feFlood flood-opacity="0" result="BackgroundImageFix"/>
<feBlend mode="normal" in="SourceGraphic" in2="BackgroundImageFix" result="shape"/>
<feGaussianBlur stdDeviation="32.3845" result="effect1_foregroundBlur_183_8327"/>
</filter>
<radialGradient id="paint0_radial_183_8327" cx="0" cy="0" r="1" gradientUnits="userSpaceOnUse" gradientTransform="translate(898.605) rotate(90) scale(1127 3604.46)">
<stop stop-color="#877CF3"/>
<stop offset="0.794371" stop-color="white"/>
</radialGradient>
<radialGradient id="paint1_radial_183_8327" cx="0" cy="0" r="1" gradientUnits="userSpaceOnUse" gradientTransform="translate(-10.6461 81.5178) rotate(180) scale(61.6636 338.817)">
<stop stop-color="white" stop-opacity="0.2"/>
<stop offset="1" stop-color="white" stop-opacity="0"/>
</radialGradient>
<radialGradient id="paint2_radial_183_8327" cx="0" cy="0" r="1" gradientUnits="userSpaceOnUse" gradientTransform="translate(-10.6461 81.5178) scale(420.554 231.206)">
<stop stop-color="white" stop-opacity="0.6"/>
<stop offset="1" stop-color="white" stop-opacity="0"/>
</radialGradient>
<radialGradient id="paint3_radial_183_8327" cx="0" cy="0" r="1" gradientUnits="userSpaceOnUse" gradientTransform="translate(59.4457 23.4031) rotate(180) scale(61.6636 307.113)">
<stop stop-color="white" stop-opacity="0.2"/>
<stop offset="1" stop-color="white" stop-opacity="0"/>
</radialGradient>
<radialGradient id="paint4_radial_183_8327" cx="0" cy="0" r="1" gradientUnits="userSpaceOnUse" gradientTransform="translate(59.4457 23.4032) scale(420.554 209.572)">
<stop stop-color="white" stop-opacity="0.6"/>
<stop offset="1" stop-color="white" stop-opacity="0"/>
</radialGradient>
<radialGradient id="paint5_radial_183_8327" cx="0" cy="0" r="1" gradientUnits="userSpaceOnUse" gradientTransform="translate(129.538 81.5178) rotate(180) scale(61.6636 338.817)">
<stop stop-color="white" stop-opacity="0.2"/>
<stop offset="1" stop-color="white" stop-opacity="0"/>
</radialGradient>
<radialGradient id="paint6_radial_183_8327" cx="0" cy="0" r="1" gradientUnits="userSpaceOnUse" gradientTransform="translate(129.538 81.5178) scale(420.554 231.206)">
<stop stop-color="white" stop-opacity="0.6"/>
<stop offset="1" stop-color="white" stop-opacity="0"/>
</radialGradient>
<radialGradient id="paint7_radial_183_8327" cx="0" cy="0" r="1" gradientUnits="userSpaceOnUse" gradientTransform="translate(1829.35 81.5178) scale(61.6636 338.817)">
<stop stop-color="white" stop-opacity="0.2"/>
<stop offset="1" stop-color="white" stop-opacity="0"/>
</radialGradient>
<radialGradient id="paint8_radial_183_8327" cx="0" cy="0" r="1" gradientUnits="userSpaceOnUse" gradientTransform="translate(1829.35 81.5178) rotate(-180) scale(420.554 231.206)">
<stop stop-color="white" stop-opacity="0.6"/>
<stop offset="1" stop-color="white" stop-opacity="0"/>
</radialGradient>
<radialGradient id="paint9_radial_183_8327" cx="0" cy="0" r="1" gradientUnits="userSpaceOnUse" gradientTransform="translate(1759.26 23.4031) scale(61.6636 307.113)">
<stop stop-color="white" stop-opacity="0.2"/>
<stop offset="1" stop-color="white" stop-opacity="0"/>
</radialGradient>
<radialGradient id="paint10_radial_183_8327" cx="0" cy="0" r="1" gradientUnits="userSpaceOnUse" gradientTransform="translate(1759.26 23.4032) rotate(-180) scale(420.554 209.572)">
<stop stop-color="white" stop-opacity="0.6"/>
<stop offset="1" stop-color="white" stop-opacity="0"/>
</radialGradient>
<radialGradient id="paint11_radial_183_8327" cx="0" cy="0" r="1" gradientUnits="userSpaceOnUse" gradientTransform="translate(1689.17 81.5178) scale(61.6636 338.817)">
<stop stop-color="white" stop-opacity="0.2"/>
<stop offset="1" stop-color="white" stop-opacity="0"/>
</radialGradient>
<radialGradient id="paint12_radial_183_8327" cx="0" cy="0" r="1" gradientUnits="userSpaceOnUse" gradientTransform="translate(1689.17 81.5178) rotate(-180) scale(420.554 231.206)">
<stop stop-color="white" stop-opacity="0.6"/>
<stop offset="1" stop-color="white" stop-opacity="0"/>
</radialGradient>
<clipPath id="clip0_183_8327">
<rect width="1840" height="1127" fill="white"/>
</clipPath>
<clipPath id="clip1_183_8327">
<rect width="210.277" height="611.312" fill="white" transform="matrix(1 0 0 -1 -10.6465 600.557)"/>
</clipPath>
<clipPath id="clip2_183_8327">
<rect width="210.277" height="611.312" fill="white" transform="matrix(-1 0 0 -1 1829.35 600.557)"/>
</clipPath>
</defs>
</svg>
