<svg width="598" height="128" viewBox="0 0 598 128" fill="none" xmlns="http://www.w3.org/2000/svg">
<path d="M196.512 6.57043V97.7205H247.272V118.83H171.832V6.57043H196.512Z" fill="#8073FF"/>
<path d="M333.632 89.5105C332.556 94.2016 330.704 98.6799 328.152 102.76C325.741 106.605 322.666 109.991 319.072 112.76C315.424 115.523 311.327 117.638 306.962 119.01C302.229 120.495 297.292 121.23 292.332 121.19C288.205 121.213 284.093 120.712 280.092 119.7C276.386 118.756 272.826 117.309 269.512 115.4C266.314 113.537 263.395 111.231 260.842 108.55C258.261 105.825 256.073 102.752 254.342 99.4205C252.526 95.9046 251.155 92.1758 250.262 88.3205C249.292 84.1033 248.815 79.7877 248.842 75.4605C248.82 71.1478 249.29 66.8467 250.242 62.6405C251.123 58.7891 252.484 55.0633 254.292 51.5505C255.994 48.2429 258.155 45.1927 260.712 42.4905C263.225 39.8242 266.112 37.537 269.282 35.7005C272.563 33.8008 276.089 32.3607 279.762 31.4205C283.718 30.4046 287.788 29.9038 291.872 29.9305C297.805 29.8493 303.696 30.9472 309.202 33.1605C314.247 35.2269 318.785 38.3622 322.502 42.3504C326.291 46.4967 329.194 51.373 331.032 56.6805C333.101 62.6808 334.116 68.994 334.032 75.3405C334.032 76.3405 334.032 77.4405 333.972 78.5005C333.912 79.5605 333.842 80.6405 333.712 81.7405H271.402C271.728 84.7362 272.503 87.6658 273.702 90.4305C274.763 92.862 276.288 95.0632 278.192 96.9105C280.06 98.6913 282.272 100.073 284.692 100.971C287.348 101.949 290.162 102.43 292.992 102.39C302.019 102.39 308.239 98.0971 311.652 89.5105H333.632ZM311.572 67.2205C310.579 60.9872 308.439 56.2938 305.152 53.1405C301.865 49.9872 297.469 48.4105 291.962 48.4105C289.358 48.376 286.768 48.8025 284.312 49.6705C282.086 50.4694 280.045 51.7111 278.312 53.3205C276.531 55.0038 275.086 57.0091 274.052 59.2305C272.874 61.7672 272.072 64.4622 271.672 67.2305L311.572 67.2205Z" fill="#8073FF"/>
<path d="M396.462 74.9104L426.722 118.83H399.542L378.422 86.4904L357.882 118.83H332.192L361.122 75.2204L332.502 32.2804H359.682L379.202 63.9604L398.372 32.2804H424.062L396.462 74.9104Z" fill="#8073FF"/>
<path d="M422.312 75.5404C422.282 71.1651 422.769 66.8015 423.762 62.5404C424.66 58.6688 426.058 54.9306 427.922 51.4204C429.684 48.1063 431.898 45.0537 434.502 42.3504C437.063 39.6893 439.993 37.4095 443.202 35.5804C446.52 33.6991 450.08 32.2793 453.782 31.3604C461.789 29.4139 470.145 29.4139 478.152 31.3604C481.855 32.2775 485.414 33.6974 488.732 35.5804C491.944 37.4094 494.877 39.6892 497.442 42.3504C500.043 45.0562 502.257 48.1084 504.022 51.4204C505.881 54.9326 507.28 58.6701 508.182 62.5404C510.109 71.0999 510.109 79.9809 508.182 88.5404C507.276 92.4192 505.878 96.1663 504.022 99.6904C502.262 103.005 500.047 106.058 497.442 108.76C494.869 111.407 491.937 113.679 488.732 115.51C485.411 117.392 481.853 118.818 478.152 119.75C470.147 121.71 461.787 121.71 453.782 119.75C450.082 118.816 446.523 117.39 443.202 115.51C440 113.679 437.072 111.406 434.502 108.76C431.894 106.061 429.679 103.008 427.922 99.6904C426.061 96.1682 424.663 92.4205 423.762 88.5404C422.768 84.2794 422.281 79.9157 422.312 75.5404ZM445.862 75.5404C445.809 79.15 446.267 82.749 447.222 86.2304C448.02 89.0993 449.379 91.7812 451.222 94.1204C452.905 96.2344 455.073 97.9118 457.542 99.0104C460.215 100.174 463.107 100.75 466.022 100.7C468.938 100.75 471.832 100.18 474.512 99.0304C476.979 97.9332 479.144 96.2554 480.822 94.1404C482.642 91.7879 483.981 89.1001 484.762 86.2304C486.589 79.2174 486.589 71.8534 484.762 64.8404C483.983 61.976 482.644 59.2944 480.822 56.9504C479.134 54.85 476.972 53.1808 474.512 52.0804C469.063 49.8595 462.961 49.8595 457.512 52.0804C455.043 53.1791 452.875 54.8564 451.192 56.9705C449.357 59.3147 447.998 61.9949 447.192 64.8604C446.235 68.3381 445.777 71.934 445.832 75.5404" fill="#8073FF"/>
<path d="M554.482 29.8804C560.194 29.8039 565.89 30.5071 571.412 31.9704C575.945 33.1538 580.211 35.1902 583.982 37.9704C587.305 40.4613 589.983 43.712 591.792 47.4504C593.621 51.3953 594.534 55.7028 594.462 60.0504H571.392C571.424 58.1893 571.062 56.3425 570.332 54.6304C569.628 53.0378 568.551 51.6382 567.192 50.5504C565.663 49.3596 563.912 48.4858 562.042 47.9804C559.76 47.3647 557.405 47.0686 555.042 47.1004C552.877 47.08 550.716 47.3048 548.602 47.7704C546.848 48.1349 545.161 48.7691 543.602 49.6504C542.317 50.3699 541.215 51.3759 540.382 52.5904C539.619 53.7137 539.214 55.0423 539.222 56.4004C539.166 57.933 539.699 59.4287 540.712 60.5804C541.835 61.7555 543.2 62.6733 544.712 63.2704C546.554 64.0378 548.471 64.6109 550.432 64.9804C552.592 65.407 554.859 65.8171 557.232 66.2104L562.972 67.2104C565.282 67.6004 567.742 68.0504 570.332 68.5604C572.925 69.0785 575.486 69.7463 578.002 70.5604C580.507 71.3643 582.937 72.3883 585.262 73.6204C587.538 74.8168 589.607 76.3698 591.392 78.2204C593.205 80.1131 594.638 82.3368 595.612 84.7704C596.713 87.6403 597.242 90.6975 597.172 93.7704C597.246 97.805 596.326 101.796 594.492 105.39C592.638 108.872 589.943 111.836 586.652 114.01C582.764 116.539 578.451 118.345 573.922 119.34C568.227 120.632 562.4 121.246 556.562 121.17C550.458 121.273 544.366 120.601 538.432 119.17C533.719 118.042 529.266 116.022 525.312 113.22C521.87 110.73 519.117 107.406 517.312 103.56C515.456 99.4223 514.537 94.925 514.622 90.3904H537.692C537.692 94.7437 539.229 98.0771 542.302 100.39C545.375 102.704 550.062 103.86 556.362 103.86C558.854 103.883 561.342 103.665 563.792 103.21C565.742 102.869 567.628 102.228 569.382 101.31C570.776 100.581 571.979 99.5324 572.892 98.2504C573.711 97.045 574.14 95.6175 574.122 94.1604C574.196 92.5207 573.67 90.9102 572.642 89.6304C571.517 88.3675 570.122 87.3731 568.562 86.7204C566.584 85.8745 564.522 85.2377 562.412 84.8204C560.042 84.3204 557.482 83.8204 554.722 83.3304L548.982 82.3304C546.869 81.9637 544.589 81.5304 542.142 81.0304C539.673 80.5337 537.236 79.8926 534.842 79.1104C532.432 78.3234 530.091 77.3401 527.842 76.1704C525.618 75.0279 523.592 73.5356 521.842 71.7504C520.09 69.9314 518.693 67.8017 517.722 65.4704C516.636 62.7432 516.113 59.8249 516.182 56.8904C516.093 53.0179 516.977 49.185 518.754 45.7431C520.531 42.3012 523.143 39.3605 526.352 37.1904C530.015 34.6904 534.101 32.8745 538.412 31.8304C543.681 30.5251 549.094 29.8967 554.522 29.9604" fill="#8073FF"/>
<path d="M70.6419 0.0804443C69.3908 0.0820051 68.156 0.365021 67.0291 0.908569C65.9022 1.45212 64.912 2.24225 64.1319 3.22043L41.2219 32.0804H96.4419V87.3004L125.302 64.3904C126.282 63.6143 127.074 62.6263 127.618 61.5006C128.161 60.3749 128.443 59.1406 128.442 57.8904V0.0804443H70.6419Z" fill="#8073FF"/>
<path d="M3.96191 29.6404C2.98319 30.42 2.19265 31.4101 1.64905 32.5371C1.10545 33.6642 0.822738 34.8992 0.821899 36.1505V81.7604C0.821899 83.2297 1.40557 84.6388 2.44452 85.6778C3.48347 86.7167 4.89264 87.3004 6.36194 87.3004H41.2019V0.0804443L3.96191 29.6404Z" fill="#8073FF"/>
<path d="M41.2319 87.3004V122.14C41.2306 122.867 41.3727 123.588 41.65 124.26C41.9273 124.932 42.3345 125.543 42.8481 126.057C43.3617 126.572 43.9718 126.98 44.6434 127.259C45.315 127.537 46.0349 127.68 46.7619 127.68H92.3819C93.6317 127.68 94.8653 127.397 95.9907 126.853C97.1161 126.309 98.1043 125.519 98.8819 124.54L128.442 87.3004H41.2319Z" fill="#8073FF"/>
</svg>
