<svg width="100" height="101" viewBox="0 0 100 101" fill="none" xmlns="http://www.w3.org/2000/svg">
<circle cx="50" cy="50.4941" r="50" fill="#877CF3"/>
<path d="M46.4867 34.3947L44.745 31.7168C32.6946 39.8168 26 49.6584 26 57.7584C26 65.5906 31.7585 69.2732 36.645 69.2732C42.8041 69.2732 47.155 64.0503 47.155 58.5617C47.155 53.943 44.2094 49.9926 40.259 48.5187C39.1215 48.116 38.0503 47.7818 38.0503 45.8409C38.0503 43.3644 39.8584 39.6839 46.4867 34.3947ZM73.0638 34.3947L71.3221 31.7168C59.4046 39.8168 52.5772 49.6584 52.5772 57.7584C52.5772 65.5906 58.4684 69.2732 63.355 69.2732C69.5805 69.2732 74 64.0503 74 58.5617C74 53.943 70.9879 49.9926 66.9026 48.5187C65.7651 48.116 64.7603 47.7818 64.7603 45.8409C64.7603 43.3644 66.6348 39.6818 73.0617 34.3925L73.0638 34.3947Z" fill="white"/>
</svg>
