<svg width="25" height="25" viewBox="0 0 25 25" fill="none" xmlns="http://www.w3.org/2000/svg">
<path d="M8.44971 21.9206V7.92059C8.44971 6.99062 8.44971 6.52564 8.55193 6.14414C8.82933 5.10886 9.63797 4.30022 10.6733 4.02282C11.0547 3.92059 11.5197 3.92059 12.4497 3.92059C13.3797 3.92059 13.8447 3.92059 14.2262 4.02282C15.2614 4.30022 16.0701 5.10886 16.3475 6.14414C16.4497 6.52564 16.4497 6.99062 16.4497 7.92059V21.9206M5.64971 21.9206H19.2497C20.3698 21.9206 20.9299 21.9206 21.3577 21.7026C21.734 21.5109 22.04 21.2049 22.2317 20.8286C22.4497 20.4008 22.4497 19.8407 22.4497 18.7206V11.1206C22.4497 10.0005 22.4497 9.44044 22.2317 9.01261C22.04 8.63629 21.734 8.33033 21.3577 8.13858C20.9299 7.92059 20.3698 7.92059 19.2497 7.92059H5.64971C4.5296 7.92059 3.96955 7.92059 3.54173 8.13858C3.1654 8.33033 2.85944 8.63629 2.66769 9.01261C2.44971 9.44044 2.44971 10.0005 2.44971 11.1206V18.7206C2.44971 19.8407 2.44971 20.4008 2.66769 20.8286C2.85944 21.2049 3.1654 21.5109 3.54173 21.7026C3.96955 21.9206 4.5296 21.9206 5.64971 21.9206Z" stroke="white" stroke-width="2" stroke-linecap="round" stroke-linejoin="round"/>
</svg>
