<svg width="25" height="25" viewBox="0 0 25 25" fill="none" xmlns="http://www.w3.org/2000/svg">
<path d="M8.1499 21.9206V7.92059C8.1499 6.99062 8.1499 6.52564 8.25212 6.14414C8.52953 5.10886 9.33817 4.30022 10.3734 4.02282C10.7549 3.92059 11.2199 3.92059 12.1499 3.92059C13.0799 3.92059 13.5449 3.92059 13.9264 4.02282C14.9616 4.30022 15.7703 5.10886 16.0477 6.14414C16.1499 6.52564 16.1499 6.99062 16.1499 7.92059V21.9206M5.3499 21.9206H18.9499C20.07 21.9206 20.6301 21.9206 21.0579 21.7026C21.4342 21.5109 21.7402 21.2049 21.9319 20.8286C22.1499 20.4008 22.1499 19.8407 22.1499 18.7206V11.1206C22.1499 10.0005 22.1499 9.44044 21.9319 9.01261C21.7402 8.63629 21.4342 8.33033 21.0579 8.13858C20.6301 7.92059 20.07 7.92059 18.9499 7.92059H5.3499C4.2298 7.92059 3.66974 7.92059 3.24192 8.13858C2.8656 8.33033 2.55964 8.63629 2.36789 9.01261C2.1499 9.44044 2.1499 10.0005 2.1499 11.1206V18.7206C2.1499 19.8407 2.1499 20.4008 2.36789 20.8286C2.55964 21.2049 2.8656 21.5109 3.24192 21.7026C3.66974 21.9206 4.2298 21.9206 5.3499 21.9206Z" stroke="black" stroke-width="2" stroke-linecap="round" stroke-linejoin="round"/>
</svg>
