<svg width="25" height="25" viewBox="0 0 25 25" fill="none" xmlns="http://www.w3.org/2000/svg">
<path d="M20.1499 10.9206V7.72059C20.1499 6.04044 20.1499 5.20036 19.8229 4.55862C19.5353 3.99414 19.0764 3.53519 18.5119 3.24757C17.8701 2.92059 17.0301 2.92059 15.3499 2.92059H8.9499C7.26974 2.92059 6.42967 2.92059 5.78793 3.24757C5.22344 3.53519 4.7645 3.99414 4.47688 4.55862C4.1499 5.20036 4.1499 6.04044 4.1499 7.72059V18.1206C4.1499 19.8008 4.1499 20.6408 4.47688 21.2826C4.7645 21.8471 5.22344 22.306 5.78793 22.5936C6.42967 22.9206 7.26974 22.9206 8.9499 22.9206H10.6499M13.1499 11.9206H8.1499M11.1499 15.9206H8.1499M16.1499 7.92059H8.1499M19.3999 17.9206V16.1706C19.3999 15.2041 18.6164 14.4206 17.6499 14.4206C16.6834 14.4206 15.8999 15.2041 15.8999 16.1706V17.9206M15.7499 21.9206H19.5499C20.11 21.9206 20.39 21.9206 20.6039 21.8116C20.7921 21.7157 20.945 21.5627 21.0409 21.3746C21.1499 21.1607 21.1499 20.8806 21.1499 20.3206V19.5206C21.1499 18.9605 21.1499 18.6805 21.0409 18.4666C20.945 18.2784 20.7921 18.1255 20.6039 18.0296C20.39 17.9206 20.11 17.9206 19.5499 17.9206H15.7499C15.1899 17.9206 14.9098 17.9206 14.6959 18.0296C14.5077 18.1255 14.3548 18.2784 14.2589 18.4666C14.1499 18.6805 14.1499 18.9605 14.1499 19.5206V20.3206C14.1499 20.8806 14.1499 21.1607 14.2589 21.3746C14.3548 21.5627 14.5077 21.7157 14.6959 21.8116C14.9098 21.9206 15.1899 21.9206 15.7499 21.9206Z" stroke="black" stroke-width="2" stroke-linecap="round" stroke-linejoin="round"/>
</svg>
