<svg width="25" height="25" viewBox="0 0 25 25" fill="none" xmlns="http://www.w3.org/2000/svg">
<path d="M10.6495 9.92283C10.8257 9.42195 11.1735 8.9996 11.6313 8.73057C12.089 8.46154 12.6272 8.3632 13.1505 8.45296C13.6739 8.54272 14.1485 8.8148 14.4905 9.221C14.8324 9.6272 15.0196 10.1413 15.0188 10.6723C15.0188 12.1712 12.7704 12.9206 12.7704 12.9206M12.7994 15.9206H12.8094M12.6495 20.9206C17.3439 20.9206 21.1495 17.115 21.1495 12.4206C21.1495 7.72617 17.3439 3.92059 12.6495 3.92059C7.95511 3.92059 4.14953 7.72617 4.14953 12.4206C4.14953 13.3706 4.30537 14.2842 4.5929 15.1372C4.7011 15.4582 4.7552 15.6187 4.76495 15.742C4.77459 15.8638 4.76731 15.9492 4.73718 16.0675C4.70667 16.1874 4.63932 16.3121 4.50462 16.5614L2.86896 19.5889C2.63565 20.0208 2.519 20.2367 2.54511 20.4034C2.56785 20.5485 2.65327 20.6763 2.7787 20.7528C2.9227 20.8407 3.16683 20.8154 3.65507 20.765L8.77609 20.2356C8.93117 20.2196 9.00871 20.2116 9.07939 20.2143C9.1489 20.2169 9.19797 20.2235 9.26576 20.2391C9.33468 20.255 9.42135 20.2884 9.59468 20.3551C10.5427 20.7204 11.5727 20.9206 12.6495 20.9206Z" stroke="black" stroke-width="2" stroke-linecap="round" stroke-linejoin="round"/>
</svg>
