<svg width="25" height="24" viewBox="0 0 25 24" fill="none" xmlns="http://www.w3.org/2000/svg">
<path d="M9.29943 14C9.29943 14 10.6119 15.5 12.7994 15.5C14.9869 15.5 16.2994 14 16.2994 14M12.7994 20C17.4938 20 21.2994 16.1944 21.2994 11.5C21.2994 6.80558 17.4938 3 12.7994 3C8.10501 3 4.29943 6.80558 4.29943 11.5C4.29943 12.45 4.45528 13.3636 4.7428 14.2166C4.851 14.5376 4.9051 14.6981 4.91486 14.8214C4.92449 14.9432 4.91721 15.0286 4.88708 15.1469C4.85658 15.2668 4.78923 15.3915 4.65452 15.6408L3.01887 18.6684C2.78555 19.1002 2.6689 19.3161 2.69501 19.4828C2.71775 19.6279 2.80318 19.7557 2.9286 19.8322C3.07261 19.9201 3.31673 19.8948 3.80497 19.8444L8.92599 19.315C9.08107 19.299 9.15861 19.291 9.22929 19.2937C9.2988 19.2963 9.34787 19.3029 9.41566 19.3185C9.48458 19.3344 9.57125 19.3678 9.74458 19.4345C10.6926 19.7998 11.7227 20 12.7994 20Z" stroke="white" stroke-width="2" stroke-linecap="round" stroke-linejoin="round"/>
</svg>
