<svg width="25" height="24" viewBox="0 0 25 24" fill="none" xmlns="http://www.w3.org/2000/svg">
<path d="M9.2998 17L4.2998 22M15.2998 17L20.2998 22M12.2998 2V4M12.2998 22V17M5.49981 17H19.0998C20.2199 17 20.78 17 21.2078 16.782C21.5841 16.5903 21.8901 16.2843 22.0818 15.908C22.2998 15.4802 22.2998 14.9201 22.2998 13.8V7.2C22.2998 6.07989 22.2998 5.51984 22.0818 5.09202C21.8901 4.71569 21.5841 4.40973 21.2078 4.21799C20.78 4 20.2199 4 19.0998 4H5.4998C4.3797 4 3.81965 4 3.39182 4.21799C3.0155 4.40973 2.70954 4.71569 2.51779 5.09202C2.2998 5.51984 2.2998 6.07989 2.2998 7.2V13.8C2.2998 14.9201 2.2998 15.4802 2.51779 15.908C2.70954 16.2843 3.0155 16.5903 3.39182 16.782C3.81965 17 4.3797 17 5.49981 17Z" stroke="white" stroke-width="2" stroke-linecap="round" stroke-linejoin="round"/>
</svg>
