<svg width="25" height="25" viewBox="0 0 25 25" fill="none" xmlns="http://www.w3.org/2000/svg">
<path d="M10.9493 9.92283C11.1255 9.42195 11.4733 8.9996 11.9311 8.73057C12.3888 8.46154 12.927 8.3632 13.4503 8.45296C13.9737 8.54272 14.4483 8.8148 14.7903 9.221C15.1322 9.6272 15.3194 10.1413 15.3186 10.6723C15.3186 12.1712 13.0702 12.9206 13.0702 12.9206M13.0992 15.9206H13.1092M12.9493 20.9206C17.6438 20.9206 21.4493 17.115 21.4493 12.4206C21.4493 7.72617 17.6438 3.92059 12.9493 3.92059C8.25491 3.92059 4.44933 7.72617 4.44933 12.4206C4.44933 13.3706 4.60518 14.2842 4.8927 15.1372C5.0009 15.4582 5.055 15.6187 5.06476 15.742C5.0744 15.8638 5.06711 15.9492 5.03699 16.0675C5.00648 16.1874 4.93913 16.3121 4.80442 16.5614L3.16877 19.5889C2.93546 20.0208 2.8188 20.2367 2.84491 20.4034C2.86765 20.5485 2.95308 20.6763 3.07851 20.7528C3.22251 20.8407 3.46663 20.8154 3.95487 20.765L9.0759 20.2356C9.23098 20.2196 9.30852 20.2116 9.37919 20.2143C9.44871 20.2169 9.49778 20.2235 9.56556 20.2391C9.63449 20.255 9.72115 20.2884 9.89449 20.3551C10.8425 20.7204 11.8726 20.9206 12.9493 20.9206Z" stroke="white" stroke-width="2" stroke-linecap="round" stroke-linejoin="round"/>
</svg>
