<svg width="25" height="25" viewBox="0 0 25 25" fill="none" xmlns="http://www.w3.org/2000/svg">
<path d="M20.4497 10.9206V7.72059C20.4497 6.04044 20.4497 5.20036 20.1227 4.55862C19.8351 3.99414 19.3762 3.53519 18.8117 3.24757C18.1699 2.92059 17.3299 2.92059 15.6497 2.92059H9.24971C7.56955 2.92059 6.72947 2.92059 6.08774 3.24757C5.52325 3.53519 5.06431 3.99414 4.77669 4.55862C4.44971 5.20036 4.44971 6.04044 4.44971 7.72059V18.1206C4.44971 19.8008 4.44971 20.6408 4.77669 21.2826C5.06431 21.8471 5.52325 22.306 6.08774 22.5936C6.72947 22.9206 7.56955 22.9206 9.24971 22.9206H10.9497M13.4497 11.9206H8.44971M11.4497 15.9206H8.44971M16.4497 7.92059H8.44971M19.6997 17.9206V16.1706C19.6997 15.2041 18.9162 14.4206 17.9497 14.4206C16.9832 14.4206 16.1997 15.2041 16.1997 16.1706V17.9206M16.0497 21.9206H19.8497C20.4098 21.9206 20.6898 21.9206 20.9037 21.8116C21.0919 21.7157 21.2448 21.5627 21.3407 21.3746C21.4497 21.1607 21.4497 20.8806 21.4497 20.3206V19.5206C21.4497 18.9605 21.4497 18.6805 21.3407 18.4666C21.2448 18.2784 21.0919 18.1255 20.9037 18.0296C20.6898 17.9206 20.4098 17.9206 19.8497 17.9206H16.0497C15.4897 17.9206 15.2096 17.9206 14.9957 18.0296C14.8076 18.1255 14.6546 18.2784 14.5587 18.4666C14.4497 18.6805 14.4497 18.9605 14.4497 19.5206V20.3206C14.4497 20.8806 14.4497 21.1607 14.5587 21.3746C14.6546 21.5627 14.8076 21.7157 14.9957 21.8116C15.2096 21.9206 15.4897 21.9206 16.0497 21.9206Z" stroke="white" stroke-width="2" stroke-linecap="round" stroke-linejoin="round"/>
</svg>
