<svg width="25" height="24" viewBox="0 0 25 24" fill="none" xmlns="http://www.w3.org/2000/svg">
<path d="M15.3472 2V12C15.3472 13.1 14.4472 14 13.3472 14H2.34717V6C2.34717 3.79 4.13717 2 6.34717 2H15.3472Z" stroke="black" stroke-width="1.8" stroke-linecap="round" stroke-linejoin="round"/>
<path d="M22.3472 14V17C22.3472 18.66 21.0072 20 19.3472 20H18.3472C18.3472 18.9 17.4472 18 16.3472 18C15.2472 18 14.3472 18.9 14.3472 20H10.3472C10.3472 18.9 9.44717 18 8.34717 18C7.24717 18 6.34717 18.9 6.34717 20H5.34717C3.68717 20 2.34717 18.66 2.34717 17V14H13.3472C14.4472 14 15.3472 13.1 15.3472 12V5H17.1872C17.9072 5 18.5672 5.39001 18.9272 6.01001L20.6372 9H19.3472C18.7972 9 18.3472 9.45 18.3472 10V13C18.3472 13.55 18.7972 14 19.3472 14H22.3472Z" stroke="black" stroke-width="1.8" stroke-linecap="round" stroke-linejoin="round"/>
<path d="M8.34717 22C9.45174 22 10.3472 21.1046 10.3472 20C10.3472 18.8954 9.45174 18 8.34717 18C7.2426 18 6.34717 18.8954 6.34717 20C6.34717 21.1046 7.2426 22 8.34717 22Z" stroke="black" stroke-width="1.8" stroke-linecap="round" stroke-linejoin="round"/>
<path d="M16.3472 22C17.4517 22 18.3472 21.1046 18.3472 20C18.3472 18.8954 17.4517 18 16.3472 18C15.2426 18 14.3472 18.8954 14.3472 20C14.3472 21.1046 15.2426 22 16.3472 22Z" stroke="black" stroke-width="1.8" stroke-linecap="round" stroke-linejoin="round"/>
<path d="M22.3472 12V14H19.3472C18.7972 14 18.3472 13.55 18.3472 13V10C18.3472 9.45 18.7972 9 19.3472 9H20.6372L22.3472 12Z" stroke="black" stroke-width="1.8" stroke-linecap="round" stroke-linejoin="round"/>
</svg>
